<?xml version="1.0" encoding="UTF-8" standalone="no"?>
<svg
   id="emoji"
   viewBox="0 0 72 72"
   version="1.1"
   sodipodi:docname="favicon.svg"
   inkscape:version="1.4 (e7c3feb100, 2024-10-09)"
   xmlns:inkscape="http://www.inkscape.org/namespaces/inkscape"
   xmlns:sodipodi="http://sodipodi.sourceforge.net/DTD/sodipodi-0.dtd"
   xmlns="http://www.w3.org/2000/svg"
   xmlns:svg="http://www.w3.org/2000/svg">
  <defs
     id="defs4">
    <inkscape:path-effect
       effect="simplify"
       id="path-effect12"
       is_visible="true"
       lpeversion="1.3"
       threshold="10.869565"
       steps="1"
       smooth_angles="360"
       helper_size="0"
       simplify_individual_paths="false"
       simplify_just_coalesce="false" />
  </defs>
  <sodipodi:namedview
     id="namedview4"
     pagecolor="#ffffff"
     bordercolor="#000000"
     borderopacity="0.25"
     inkscape:showpageshadow="2"
     inkscape:pageopacity="0.0"
     inkscape:pagecheckerboard="0"
     inkscape:deskcolor="#d1d1d1"
     inkscape:zoom="8.4861111"
     inkscape:cx="34.644844"
     inkscape:cy="25.571195"
     inkscape:window-width="2560"
     inkscape:window-height="1371"
     inkscape:window-x="0"
     inkscape:window-y="0"
     inkscape:window-maximized="1"
     inkscape:current-layer="emoji" />
  <g
     id="color"
     transform="matrix(0.97299223,0,0,0.97299586,-9.6962517,11.636011)"
     style="stroke-width:1.02776">
    <path
       fill="#b1cc33"
       stroke="#b1cc33"
       stroke-miterlimit="10"
       stroke-width="2.05551"
       d="m 56.599,32.8694 c 6.3433,6.3433 6.3359,16.6243 0,22.9601 -6.3433,6.3433 -16.6169,6.3433 -22.9601,0 C 33.4613,55.6519 33.2984,55.4742 33.1282,55.2892 31.5886,53.6164 30.4709,51.6846 29.7678,49.6491 29.109,48.1022 28.5169,46.459 27.9247,44.801 26.326,40.3452 24.7346,35.8079 21.6851,32.7584 c -3.2716,-3.2716 -3.2716,-8.5711 0,-11.8427 3.2641,-3.2641 8.5712,-3.2716 11.8427,0 3.0495,3.0495 7.5868,4.6409 12.0426,6.2396 1.658,0.5922 3.3012,1.1843 4.8482,1.843 2.1169,0.9178 4.0709,1.9689 5.6401,3.3604 0.1851,0.1703 0.3627,0.3331 0.5403,0.5107 z"
       id="path1" />
    <path
       fill="#5c9e31"
       stroke="none"
       d="M 56.5987,55.8297 C 51.8529,60.5871 45.2122,60.49 45.2122,60.49 67.4175,47.2917 50.42,28.9939 50.42,28.9939 c 0,0 4.0668,1.9735 5.6346,3.366 0.1937,0.166 0.3689,0.332 0.5441,0.5072 6.3447,6.3447 6.3278,16.6194 0,22.9626 z"
       id="path2"
       style="stroke-width:1.02776" />
  </g>
  <g
     id="hair" />
  <g
     id="skin" />
  <g
     id="skin-shadow" />
  <g
     id="line"
     transform="matrix(0.97299223,0,0,0.97299586,-9.6962517,11.636011)"
     style="stroke-width:1.02776">
    <path
       fill="none"
       stroke="#000000"
       stroke-linecap="round"
       stroke-linejoin="round"
       stroke-miterlimit="10"
       stroke-width="2.05551"
       d="m 21.7378,21.5926 c 0,0 -5.271,-5.1624 -10.4878,0.0543"
       id="path3" />
    <path
       fill="none"
       stroke="#000000"
       stroke-linecap="round"
       stroke-linejoin="round"
       stroke-miterlimit="10"
       stroke-width="2.05551"
       d="m 24.8805,18.9186 c 2.9293,-1.0048 6.3086,-0.3418 8.6475,1.9971 3.0495,3.0495 7.5868,4.6409 12.0426,6.2396 1.658,0.5922 3.3012,1.1843 4.8482,1.843 2.1169,0.9178 4.0709,1.9689 5.6401,3.3604 0.185,0.1702 0.3627,0.333 0.5403,0.5107 6.3433,6.3433 6.3359,16.6243 0,22.9601 -6.3433,6.3433 -16.6169,6.3433 -22.9601,0 C 33.4615,55.6519 33.2986,55.4742 33.1284,55.2892 31.5888,53.6164 30.4711,51.6846 29.768,49.6491 29.1092,48.1022 28.5171,46.459 27.9249,44.801 26.3262,40.3452 24.7348,35.8079 21.6853,32.7584 19.5289,30.602 18.7938,27.5645 19.4801,24.8075"
       id="path4" />
  </g>
  <path
     fill="#b1cc33"
     stroke="#b1cc33"
     stroke-miterlimit="10"
     stroke-width="2"
     d="m 26.862942,27.962589 c -6.171981,-6.172005 -6.164781,-16.175375 0,-22.3400821 6.171982,-6.17200465 16.168115,-6.17200465 22.339999,0 0.172803,0.1728041 0.331304,0.3457054 0.496907,0.5257097 1.498019,1.6276274 2.585532,3.5072608 3.269643,5.4877934 0.641008,1.505128 1.217116,3.103955 1.793322,4.717182 1.555523,4.335475 3.103943,8.750249 6.071083,11.7174 3.183241,3.183253 3.183241,8.339644 0,11.522898 -3.175944,3.175956 -8.339711,3.183253 -11.522855,0 -2.96714,-2.967151 -7.381898,-4.515577 -11.717357,-6.071105 -1.613221,-0.576208 -3.212042,-1.152319 -4.717261,-1.793232 -2.059727,-0.893015 -3.960954,-1.915731 -5.487773,-3.269655 -0.180101,-0.165701 -0.352904,-0.324105 -0.525708,-0.496909 z"
     id="path8"
     style="fill:#cca533;fill-opacity:1;stroke:#cca533;stroke-opacity:1" />
  <path
     fill="none"
     stroke="#000000"
     stroke-linecap="round"
     stroke-linejoin="round"
     stroke-miterlimit="10"
     stroke-width="2"
     d="m 60.782619,38.934869 c 0,0 5.128642,5.022994 10.204548,-0.05283"
     id="path10" />
  <path
     style="fill:#544415;fill-opacity:1;stroke:none;stroke-width:1.01772;stroke-linecap:round;stroke-opacity:1"
     d="m 68.331938,11.443104 c -0.714731,0.433435 -0.798108,1.429336 -0.474097,2.121043 0.262299,0.559965 0.590039,1.0884 0.81144,1.671051 0.870421,2.290645 0.685362,4.782717 0.843244,7.184687 0.138877,2.112825 -0.757443,4.113063 -1.751812,5.936748 -0.358798,0.658039 -0.854711,1.235478 -1.085394,1.966222 -0.131194,0.41559 -0.139707,1.119754 0.342268,1.197862 0.786489,0.127458 1.591649,-0.05189 2.32642,-0.311419 2.084133,-0.73615 3.727818,-2.396634 4.761171,-4.342499 0.638231,-1.201825 1.222229,-2.555602 0.979789,-3.952362 -0.279392,-1.609651 -0.876817,-3.173576 -1.849032,-4.455066 -1.042784,-1.374507 -2.437106,-2.463936 -3.2129,-4.064541 -0.494579,-1.020409 -1.191551,-1.931983 -1.691097,-2.951726 z"
     id="path12"
     inkscape:path-effect="#path-effect12"
     inkscape:original-d="m 68.331938,11.443104 c -0.83337,0.5267 -0.753433,1.655602 -0.333768,2.424315 1.664003,2.711585 1.363436,5.86387 1.53212,8.909873 0.02364,2.48885 -1.173077,4.784253 -2.546153,6.784272 -0.296023,0.564863 -0.684538,1.553996 0.03345,1.959153 0.709048,0.130851 1.451153,-0.09517 2.148508,-0.250891 1.905662,-0.622299 3.561444,-1.995388 4.572756,-3.720123 0.769617,-1.43198 1.689769,-3.026863 1.330193,-4.714296 -0.294565,-1.577085 -1.280697,-2.893708 -1.833109,-4.376036 -1.058822,-1.396827 -2.636803,-2.433426 -3.241974,-4.144246 -0.512476,-0.981212 -1.168481,-1.880345 -1.662019,-2.872021 z"
     transform="matrix(0.97299223,0,0,0.97299586,-8.9936135,12.000848)"
     sodipodi:nodetypes="scccccccccss" />
  <path
     fill="none"
     stroke="#000000"
     stroke-linecap="round"
     stroke-linejoin="round"
     stroke-miterlimit="10"
     stroke-width="2"
     d="m 57.724796,41.53666 c -2.850186,0.977666 -6.138219,0.33257 -8.41395,-1.94317 -2.96714,-2.967151 -7.381898,-4.515577 -11.717356,-6.071105 -1.613221,-0.576208 -3.212042,-1.152319 -4.717261,-1.793232 -2.059728,-0.893015 -3.960954,-1.915731 -5.487774,-3.269655 -0.180003,-0.165604 -0.352904,-0.324008 -0.525707,-0.496909 -6.171982,-6.172005 -6.164782,-16.175375 0,-22.3400821 6.171981,-6.17200465 16.168114,-6.17200465 22.339998,0 0.172804,0.1728041 0.331304,0.3457054 0.496908,0.5257097 1.498018,1.6276274 2.585532,3.5072608 3.269643,5.4877934 0.641007,1.505128 1.217116,3.103955 1.793322,4.717182 1.555522,4.335475 3.103942,8.750249 6.071082,11.7174 2.09816,2.098168 2.813407,5.053643 2.145642,7.736192"
     id="path11" />
</svg>
